<svg xmlns="http://www.w3.org/2000/svg" xmlns:xlink="http://www.w3.org/1999/xlink" preserveAspectRatio="xMidYMid meet" version="1.0" viewBox="0.9 0.0 30.2 32.0" zoomAndPan="magnify" style="fill: rgb(71, 46, 58);" original_string_length="1503"><g id="__id30_svty0ywsak"><path d="M4.30625,32h18.71042c1.87813,0,3.40521-1.52761,3.40521-3.40573V27.3224h1.27188 c1.87812,0,3.40625-1.5276,3.40625-3.40573V3.40573C31.1,1.5276,29.57187,0,27.69375,0H8.98333 C7.10521,0,5.57813,1.5276,5.57813,3.40573V4.6776H4.30625C2.42812,4.6776,0.9,6.20521,0.9,8.08333v20.51094 C0.9,30.47239,2.42812,32,4.30625,32z M7.71146,3.40573c0-0.70156,0.57083-1.2724,1.27188-1.2724h18.71042 c0.70208,0,1.27292,0.57083,1.27292,1.2724v20.51094c0,0.70156-0.57083,1.2724-1.27292,1.2724h-1.27188V8.08333 c0-1.87812-1.52708-3.40573-3.40521-3.40573H7.71146V3.40573z M3.03333,8.08333c0-0.70156,0.57083-1.2724,1.27292-1.2724h18.71042 c0.70104,0,1.27188,0.57083,1.27188,1.2724v20.51094c0,0.70156-0.57083,1.2724-1.27188,1.2724H4.30625 c-0.70208,0-1.27292-0.57083-1.27292-1.2724V8.08333z" style="fill: inherit;"/><path d="M8.08021,19.40573h4.51458v4.51406c0,0.58906,0.47708,1.06667,1.06667,1.06667s1.06667-0.4776,1.06667-1.06667v-4.51406 h4.51354c0.58958,0,1.06667-0.4776,1.06667-1.06667c0-0.58906-0.47708-1.06667-1.06667-1.06667h-4.51354v-4.51458 c0-0.58906-0.47708-1.06667-1.06667-1.06667s-1.06667,0.4776-1.06667,1.06667v4.51458H8.08021 c-0.58958,0-1.06667,0.4776-1.06667,1.06667C7.01354,18.92813,7.49062,19.40573,8.08021,19.40573z" style="fill: inherit;"/></g></svg>