<svg xmlns="http://www.w3.org/2000/svg" xmlns:xlink="http://www.w3.org/1999/xlink" data-name="Layer 48" preserveAspectRatio="xMidYMid meet" version="1.0" viewBox="1.8 1.9 46.5 46.1" zoomAndPan="magnify" style="fill: rgb(71, 46, 58);" original_string_length="554"><g id="__id28_svty0ywsak"><path d="M47.26,19.45l-21-17a2,2,0,0,0-2.52,0l-21,17a2,2,0,0,0,2.52,3.11L6,22V46a2,2,0,0,0,2,2H42a2,2,0,0,0,2-2V22l0.74,0.6A2,2,0,0,0,47.26,19.45ZM20,44V32H30V44H20Zm20,0H34V30a2,2,0,0,0-2-2H18a2,2,0,0,0-2,2V44H10V18.72L25,6.57,40,18.72V44Z" style="fill: inherit;"/></g></svg>