<svg xmlns="http://www.w3.org/2000/svg" xmlns:xlink="http://www.w3.org/1999/xlink" data-name="Capa 1" preserveAspectRatio="xMidYMid meet" version="1.0" viewBox="22.9 33.6 421.5 391.5" zoomAndPan="magnify" style="fill: rgb(0, 0, 0);" original_string_length="677"><g id="__id22_svty0ywsak"><path d="M24,179.77c0-83.31,59.05-141.56,136.67-135,23.72,2,44.15,11.66,61.33,27.66,7.45,6.94,12.48,8.53,21,1,38.4-33.68,82.18-39.84,127.37-17.35,47.46,23.62,68.79,65.56,71.7,117.44,2.37,42.13-13,77.65-41,108.46-43.45,47.82-92.68,89.16-143.65,128.61-15.26,11.81-30.64,14.46-46.37,2.12-55.29-43.39-110.7-86.66-155.48-141.59C33.94,244.52,22.94,214.26,24,179.77Z" style="fill: rgb(236, 85, 65);"/></g></svg>